# xmcd
#
# Track frame offsets: 
#        150
#        17625
#        29007
#        54571
#        73692
#        89633
#        112571
#        127085
#        138673
#        153929
#        168225
#        188206
#        200184
#        223091
#        257329
#        279040
#        295118
#        308560
#
# Disc length: 4349 seconds
#
# Revision: 1
# Processed by: cddbd v1.5.2PL0 Copyright (c) Steve Scherf et al.
# Submitted via: ExactAudioCopy v0.99pb4
#
DISCID=0510fb12
DTITLE=Andralls - Massacre, Corruption, Destruction ...
DYEAR=2005
DGENRE=Thrash Metal
TTITLE0=Hate
TTITLE1=Chaotic World
TTITLE2=Shadows In The Mirror
TTITLE3=The Future Of Life
TTITLE4=Andralls On Fire
TTITLE5=No Chance To Escape
TTITLE6=Behind The Light
TTITLE7=Fury In Your Eyes
TTITLE8=Lady Death
TTITLE9=The Truth
TTITLE10=Silence/Behind The Light (Rehearsal at Estúdio Buda, Sao Paul
TTITLE10=o, SP June 2002)
TTITLE11=Fury In Your Eyes (Rehearsal at Estúdio Buda, Sao Paulo, SP J
TTITLE11=une 2002)
TTITLE12=Shadows In The Mirror (Rehearsal at Estúdio Buda, Sao Paulo, 
TTITLE12=SP June 2002)
TTITLE13=The Future of Life/The Truth (Rehearsal at Estúdio Buda, Sao 
TTITLE13=Paulo, SP June 2002)
TTITLE14=No Chance To Escape (Rehearsal at Estúdio Buda, Sao Paulo, SP
TTITLE14=June 2002)
TTITLE15=Beyond The Chaos (Pre-Production)
TTITLE16=So Many Gods (Pre-Production)
TTITLE17=Andralls On Fire (Live Sao Paulo, SP September 2001)
EXTD=
EXTT0=
EXTT1=
EXTT2=
EXTT3=
EXTT4=
EXTT5=
EXTT6=
EXTT7=
EXTT8=
EXTT9=
EXTT10=
EXTT11=
EXTT12=
EXTT13=
EXTT14=
EXTT15=
EXTT16=
EXTT17=
PLAYORDER=
